<?xml version="1.0" encoding="UTF-8" standalone="no"?>
<!-- Created with Inkscape (http://www.inkscape.org/) -->

<svg
   xmlns:dc="http://purl.org/dc/elements/1.1/"
   xmlns:cc="http://creativecommons.org/ns#"
   xmlns:rdf="http://www.w3.org/1999/02/22-rdf-syntax-ns#"
   xmlns:svg="http://www.w3.org/2000/svg"
   xmlns="http://www.w3.org/2000/svg"
   xmlns:sodipodi="http://sodipodi.sourceforge.net/DTD/sodipodi-0.dtd"
   xmlns:inkscape="http://www.inkscape.org/namespaces/inkscape"
   width="45.172016mm"
   height="29.547009mm"
   viewBox="0 0 45.172016 29.547009"
   version="1.1"
   id="svg8"
   inkscape:version="0.92.4 (5da689c313, 2019-01-14)"
   sodipodi:docname="quotes-left-light-blue.svg">
  <defs
     id="defs2">
    <inkscape:path-effect
       effect="spiro"
       id="path-effect3715"
       is_visible="true" />
    <inkscape:path-effect
       is_visible="true"
       id="path-effect3715-5"
       effect="spiro" />
  </defs>
  <sodipodi:namedview
     id="base"
     pagecolor="#ffffff"
     bordercolor="#666666"
     borderopacity="1.0"
     inkscape:pageopacity="0.0"
     inkscape:pageshadow="2"
     inkscape:zoom="2.8"
     inkscape:cx="89.580136"
     inkscape:cy="41.878516"
     inkscape:document-units="mm"
     inkscape:current-layer="layer1"
     showgrid="false"
     inkscape:window-width="1920"
     inkscape:window-height="1017"
     inkscape:window-x="1912"
     inkscape:window-y="-7"
     inkscape:window-maximized="1" />
  <metadata
     id="metadata5">
    <rdf:RDF>
      <cc:Work
         rdf:about="">
        <dc:format>image/svg+xml</dc:format>
        <dc:type
           rdf:resource="http://purl.org/dc/dcmitype/StillImage" />
        <dc:title></dc:title>
      </cc:Work>
    </rdf:RDF>
  </metadata>
  <g
     inkscape:label="Layer 1"
     inkscape:groupmode="layer"
     id="layer1"
     transform="translate(-61.005616,-15.898492)">
    <path
       style="fill:#bae1ff;fill-opacity:1;stroke:#bae1ff;stroke-width:0.26458332px;stroke-linecap:butt;stroke-linejoin:miter;stroke-opacity:1"
       d="m 89.029221,21.005862 4.299746,2.433587 c -1.674423,0.901401 -2.98135,2.463682 -3.572887,4.270973 -0.496371,1.516537 -0.491649,3.192529 0.01326,4.706245 1.111273,-1.449523 2.761732,-2.475566 4.553359,-2.830695 1.791628,-0.355129 3.708677,-0.03622 5.288841,0.879816 1.58017,0.916038 2.80956,2.421154 3.3917,4.152382 0.58215,1.731229 0.51193,3.673353 -0.19372,5.358021 -0.60553,1.445641 -1.66469,2.689869 -2.968419,3.55983 -1.303729,0.86996 -2.84509,1.368367 -4.408717,1.476127 -3.127254,0.215519 -6.252266,-1.147954 -8.497865,-3.335065 -2.849805,-2.77558 -4.343714,-6.883442 -3.942651,-10.841268 0.401062,-3.957825 2.688673,-7.68249 6.03735,-9.829953 z"
       id="path3713"
       inkscape:connector-curvature="0"
       inkscape:path-effect="#path-effect3715"
       inkscape:original-d="m 89.029221,21.005862 4.299746,2.433587 c 0,0 -2.94182,2.525423 -3.572887,4.270973 -0.533363,1.475302 0.01326,4.706245 0.01326,4.706245 0,0 8.965858,6.960071 13.04018,7.559524 4.28346,0.630223 -10.58307,1.133663 -15.875001,1.700892 -5.291931,0.56723 -0.172894,-14.24589 2.094699,-20.671221 z"
       sodipodi:nodetypes="ccacssc"
       transform="matrix(1.1108204,0.33638998,-0.33638998,1.1108204,3.2472772,-37.086688)" />
    <g
       transform="translate(-21.892408,-0.1241267)"
       id="layer1-0"
       inkscape:label="Layer 1"
       style="stroke:#bae1ff;stroke-opacity:1;fill:#bae1ff;fill-opacity:1">
      <path
         transform="matrix(1.1108204,0.33638998,-0.33638998,1.1108204,2.3968308,-37.086688)"
         sodipodi:nodetypes="ccacssc"
         inkscape:original-d="m 89.029221,21.005862 4.299746,2.433587 c 0,0 -2.94182,2.525423 -3.572887,4.270973 -0.533363,1.475302 0.01326,4.706245 0.01326,4.706245 0,0 8.965858,6.960071 13.04018,7.559524 4.28346,0.630223 -10.58307,1.133663 -15.875001,1.700892 -5.291931,0.56723 -0.172894,-14.24589 2.094699,-20.671221 z"
         inkscape:path-effect="#path-effect3715-5"
         inkscape:connector-curvature="0"
         id="path3713-4"
         d="m 89.029221,21.005862 4.299746,2.433587 c -1.674423,0.901401 -2.98135,2.463682 -3.572887,4.270973 -0.496371,1.516537 -0.491649,3.192529 0.01326,4.706245 1.111273,-1.449523 2.761732,-2.475566 4.553359,-2.830695 1.791628,-0.355129 3.708677,-0.03622 5.288841,0.879816 1.58017,0.916038 2.80956,2.421154 3.3917,4.152382 0.58215,1.731229 0.51193,3.673353 -0.19372,5.358021 -0.60553,1.445641 -1.66469,2.689869 -2.968419,3.55983 -1.303729,0.86996 -2.84509,1.368367 -4.408717,1.476127 -3.127254,0.215519 -6.252266,-1.147954 -8.497865,-3.335065 -2.849805,-2.77558 -4.343714,-6.883442 -3.942651,-10.841268 0.401062,-3.957825 2.688673,-7.68249 6.03735,-9.829953 z"
         style="fill:#bae1ff;fill-opacity:1;stroke:#bae1ff;stroke-width:0.26458332px;stroke-linecap:butt;stroke-linejoin:miter;stroke-opacity:1" />
    </g>
  </g>
</svg>
